<?xml version="1.0" encoding="utf-8"?>
<!-- Generator: Adobe Illustrator 16.0.4, SVG Export Plug-In . SVG Version: 6.00 Build 0)  -->
<!DOCTYPE svg PUBLIC "-//W3C//DTD SVG 1.1//EN" "http://www.w3.org/Graphics/SVG/1.1/DTD/svg11.dtd">
<svg version="1.1" id="Layer_1" xmlns="http://www.w3.org/2000/svg" xmlns:xlink="http://www.w3.org/1999/xlink" x="0px" y="0px"
	 width="80px" height="80px" viewBox="0 0 80 80" enable-background="new 0 0 80 80" xml:space="preserve">
<g>
	<path d="M62.079,9.428H56.65v4.96c0,1.885-1.533,3.422-3.42,3.422c-1.884,0-3.42-1.537-3.42-3.422v-4.96H28.717v4.96
		c0,1.885-1.536,3.422-3.421,3.422s-3.418-1.537-3.418-3.422v-4.96H16.45c-3.663,0-6.642,2.98-6.642,6.639v53.584
		c0,3.663,2.979,6.644,6.642,6.644h45.629c3.663,0,6.642-2.98,6.642-6.644V16.067C68.721,12.408,65.742,9.428,62.079,9.428z
		 M64.397,69.651c0,1.279-1.039,2.32-2.318,2.32H16.45c-1.279,0-2.32-1.041-2.32-2.32V25.956h50.268V69.651z"/>
	<path d="M25.296,15.648c0.697,0,1.259-0.565,1.259-1.26v-4.96V6.507c0-0.695-0.562-1.259-1.259-1.259
		c-0.694,0-1.256,0.563-1.256,1.259v2.921v4.96C24.041,15.083,24.603,15.648,25.296,15.648z"/>
	<path d="M53.23,15.648c0.695,0,1.259-0.565,1.259-1.26V6.507c0-0.695-0.563-1.259-1.259-1.259s-1.259,0.563-1.259,1.259v7.881
		C51.972,15.083,52.535,15.648,53.23,15.648z"/>
</g>
</svg>
